<?xml version="1.0" encoding="UTF-8" standalone="no"?>
<svg
   xmlns:dc="http://purl.org/dc/elements/1.1/"
   xmlns:cc="http://creativecommons.org/ns#"
   xmlns:rdf="http://www.w3.org/1999/02/22-rdf-syntax-ns#"
   xmlns:svg="http://www.w3.org/2000/svg"
   xmlns="http://www.w3.org/2000/svg"
   xmlns:sodipodi="http://sodipodi.sourceforge.net/DTD/sodipodi-0.dtd"
   xmlns:inkscape="http://www.inkscape.org/namespaces/inkscape"
   viewBox="0 0 512 512"
   version="1.1"
   id="svg62"
   sodipodi:docname="html_negro_rojo.svg"
   inkscape:version="1.0.2-2 (e86c870879, 2021-01-15)">
  <metadata
     id="metadata68">
    <rdf:RDF>
      <cc:Work
         rdf:about="">
        <dc:format>image/svg+xml</dc:format>
        <dc:type
           rdf:resource="http://purl.org/dc/dcmitype/StillImage" />
        <dc:title>HTML5 Logo</dc:title>
      </cc:Work>
    </rdf:RDF>
  </metadata>
  <defs
     id="defs66">
    <rect
       x="-22.840149"
       y="-1.9033457"
       width="550.06691"
       height="100.87732"
       id="rect92" />
    <rect
       x="4.037606"
       y="2.6917373"
       width="507.39249"
       height="82.097989"
       id="rect82" />
    <rect
       x="30.954979"
       y="1.3458687"
       width="457.59535"
       height="84.789726"
       id="rect72" />
  </defs>
  <sodipodi:namedview
     pagecolor="#ffffff"
     bordercolor="#666666"
     borderopacity="1"
     objecttolerance="10"
     gridtolerance="10"
     guidetolerance="10"
     inkscape:pageopacity="0"
     inkscape:pageshadow="2"
     inkscape:window-width="1366"
     inkscape:window-height="705"
     id="namedview64"
     showgrid="false"
     inkscape:zoom="0.74301455"
     inkscape:cx="336.38219"
     inkscape:cy="152.2471"
     inkscape:window-x="-8"
     inkscape:window-y="-8"
     inkscape:window-maximized="1"
     inkscape:current-layer="svg62" />
  <title
     id="title40">HTML5 Logo</title>
  <polygon
     fill="#E44D26"
     points="107.644,470.877 74.633,100.62 437.367,100.62 404.321,470.819 255.778,512    "
     id="polygon42"
     style="fill:#000000" />
  <polygon
     fill="#F16529"
     points="256,480.523 376.03,447.246 404.27,130.894 256,130.894    "
     id="polygon44"
     style="fill:#333333" />
  <polygon
     fill="#EBEBEB"
     points="256,268.217 195.91,268.217 191.76,221.716 256,221.716 256,176.305 255.843,176.305 142.132,176.305 143.219,188.488 154.38,313.627 256,313.627"
     id="polygon46"
     style="fill:#aa0000" />
  <polygon
     fill="#EBEBEB"
     points="256,386.153 255.801,386.206 205.227,372.55 201.994,336.333 177.419,336.333 156.409,336.333 162.771,407.634 255.791,433.457 256,433.399"
     id="polygon48"
     style="fill:#aa0000" />
  <polygon
     fill="#FFFFFF"
     points="255.843,268.217 255.843,313.627 311.761,313.627 306.49,372.521 255.843,386.191 255.843,433.435 348.937,407.634 349.62,399.962 360.291,280.411 361.399,268.217 349.162,268.217"
     id="polygon58"
     style="fill:#d40000" />
  <polygon
     fill="#FFFFFF"
     points="255.843,176.305 255.843,204.509 255.843,221.605 255.843,221.716 365.385,221.716 365.385,221.716 365.531,221.716 366.442,211.509 368.511,188.488 369.597,176.305"
     id="polygon60"
     style="fill:#d40000" />
  <text
     xml:space="preserve"
     id="text70"
     style="font-style:normal;font-weight:normal;font-size:85.3333px;line-height:1.25;font-family:sans-serif;white-space:pre;shape-inside:url(#rect72);fill:#000000;fill-opacity:1;stroke:none;"><tspan
       style="visibility:hidden"
       x="30.955078"
       y="163.98692"><tspan
         dx="0 84.374962 53.958305"
         style="shape-inside:url(#rect72)">WEB</tspan></tspan></text>
  <text
     xml:space="preserve"
     id="text80"
     style="fill:black;fill-opacity:1;line-height:1.25;stroke:none;font-family:Arial;font-style:normal;font-weight:bold;font-size:64px;white-space:pre;shape-inside:url(#rect82);-inkscape-font-specification:'Arial Bold';font-stretch:normal;font-variant:normal;" />
  <text
     xml:space="preserve"
     id="text90"
     style="font-style:normal;font-variant:normal;font-weight:bold;font-stretch:normal;font-size:53.3333px;line-height:1.25;font-family:sans-serif;-inkscape-font-specification:'sans-serif Bold';text-align:center;white-space:pre;shape-inside:url(#rect92);fill:#000000;fill-opacity:1;stroke:none"
     transform="matrix(2.2756261,0,0,2.2756261,-317.00887,-17.075646)"><tspan
       x="183.57361"
       y="46.753291"><tspan
         style="shape-inside:url(#rect92)">WEB</tspan></tspan></text>
</svg>
